<?xml version="1.0" encoding="UTF-8"?>
<svg id="Layer_1" xmlns="http://www.w3.org/2000/svg" version="1.1" viewBox="0 0 595.28 841.89">
  <!-- Generator: Adobe Illustrator 30.1.0, SVG Export Plug-In . SVG Version: 2.1.1 Build 136)  -->
  <path d="M325.49,559.33c-3.89-.26-10.99.84-11.71-.55-1.11-2.15,2.49-3.21,2.51-7.6l.12-21.62-13.27-.12c-.17,7.54-.33,14.75.06,22.22.14,2.69,2.24,4.74,3.55,6.95-1.38,1.45-3.27.96-4.98.87l-6.39-.36c-1.36-.08-7.34.98-8.19-.28-1.3-1.92,2.77-2.13,2.73-9.68l-.12-20.46c-.01-2.47-3.63-3.97-3.63-5.2.01-2.09,3.45-1.31,3.63-6.71s.27-10.17.11-15.44c-.09-2.76-.09-6.07-1.83-8.3-.54-.69-1.87-2.89-.35-3.12,5.19-.79,10.38-.15,15.52-.33.97-.03,1.89-.16,2.41.45,1.88,2.18-2.27,2.71-2.5,8.93-.21,5.62-.19,11.13-.05,16.83.03,1.22.32,2.62,1.87,2.51,3.8-.28,7.33-.47,11.42-.43l-.06-19.63c-.02-5.33-3.57-6.12-2.58-7.93.31-.57,1.11-1.05,1.94-.91s14.47.16,15.68.06c.64-.06,1.16.51,1.33.86.61,1.16-3.07,3.38-3.24,9.06-.2,6.66-.27,13.17-.01,19.81.05,1.27,3.51,3.52,3.57,4.34.09,1.21-3.6,3.19-3.61,5.68l-.12,19.94c-.02,3.56,1.07,6.67,3.59,9.39-2.45,1.49-4.75.97-7.42.79ZM298.86,525.83c.41.52,1.45.47,1.95.05-1.18.99,2.39-2.6,1.97-3.16-.97-1.34-1.21-.18-4.78-.34-.56-.02-.29.86.03.87.17,0,.65.06.73.25.27.71-.4,1.69.11,2.33ZM317.86,525.23c-.03,1.22,1.67,1.14,2.53.83.61-.22.44-1.62-.15-2.36-.52-.65-2.36.56-2.38,1.52Z"/>
  <path d="M366.53,543.75c-4.66-.31-9.05-.13-13.7.04-.98,5.13-3.35,9.89.21,13.7,3.09,3.3-7.67,1.7-8.88,1.75l-6.29.26c-1.12.05-2.17.28-3.27-1.03,4.87-4.14,6.24-17.52,7.77-24.52.69-3.16,1.26-6.06-.56-9.03-1.54-2.51,3.5-2.01,4.61-7.82l1.51-7.96c.62-3.29.86-6.57,1.79-9.8,1.58-5.52-2.01-6.22-1.39-9.09.08-.38.71-.91,1.41-.78,2.82.49,5.44.11,8.26.08,4.09-.03,7.99.35,12.04-.06.51-.05.96.37,1.22.56.99.71-1.57,4.34-1.39,5.83.91,7.42,2.16,14.67,3.73,21.99.86,4.05,6.83,4.28,4.33,7.08-1.38,1.54-1.73,3.31-1.33,5.38l3.85,19.73c.65,3.31,2.37,5.96,4.94,8.68-3.32,1.63-6.46.61-9.73.44-2.98-.16-6.07,1.02-9.01.13-1.35-.41-.35-2.4.33-3.05,1.66-1.6.63-3.68.4-5.53l-.86-6.97ZM363.83,532.6l-4.29-24.44c-1.48,3.78-1.41,7.34-2.27,11.01-1.06,4.5-2.07,8.8-2.42,13.46,3.16.21,6.06.34,8.98-.03Z"/>
  <path d="M229.57,559.24c-4.6-.25-11.86,1.04-12.47-.46-.74-1.83,2.07-4.33.99-6.52-1.79-3.63-4.67-10.72-5.72-15.14l-5.79,14.16c-.98,2.39-.53,4.38.94,6.59.7,1.04-1.53,2.05-2.53,1.78-1.68-.47-13.77-.18-16.35,0-.85.06-1.68-.34-1.87-.8-.7-1.69,3.15-2.64,5.79-8.29l7.99-17.11c.98-2.11,1.54-4.36,2.36-6.5-.69-1.02-2.07-1.48-2.04-2.58.03-1.48,1.59-2.24,2.12-3.64l-10.04-22.63c-1.31-2.96-3.01-5.41-5.7-7.22.12-1.28,1.66-1.38,2.7-1.34,5.23.21,10.23.01,15.46-.07.91-.01,1.65.45,1.93.88,1.37,2.18-1.86,2.88-1.26,4.83,1.65,5.36,3.58,10.38,6.12,15.79,2.27-4.51,3.53-8.82,5.11-13.27.66-1.85.56-3.85-.71-5.35-.11-.8-.18-1.4.14-2.09.55-1.21,5.23-.91,6.99-.76,4.09.34,7.95.3,11.99.02.51-.04,1.09.29,1.24.56s-.09,1.05-.43,1.33c-3.81,3.15-5.74,7.17-7.61,11.55l-7.01,16.5c-1.07,2.53,2,2.66,1.97,4.56-.02,1.46-2.61,1.89-1.89,3.96,2.89,8.24,6.41,15.99,10.22,23.85,1.31,2.71,3.17,4.55,6.19,6.29-2.7,2.09-5.71,1.29-8.85,1.12ZM215.49,533.94c.97.62,2.17,1.16,2.95,1.12.61-.03.81-.75.77-1.03-.21-1.22-2.25.58-2.54-.51-.05-.17.04-.41,0-.75l-3.2-3.62c.51-.72,1.34-.94,1.7-1.83l-1.34-3.19c-.68-.32-2.37-.71-2.65-1.82.4-1.25,2.31-1.08,3.91-1.65-1.72-.86-2.84-1.98-2.41-3.36-.22-.34-1.07-.59-1.19-.87s.36-1.04.66-.99c.72.42,1.59.89,2.38.67-1.03-1.07.09-1.69.11-2.89-1.49-.12-.97,1.3-1.87,1.62-1.26-.51-1.89.07-2.29,1.06-.27.68.61,1.04,1.18,1.72,2.15,2.55-5.06,2.09-1.01,5.08-.75.46-1.28,1.2-.62,2.07.3.39.67.85.68,1.19.01.29-.64.83-.56,1.37.55.93,2.4.27,3.04,1.56.29.6-1.32,1.14-1.78.81-.3-.22-.68-.42-1.1-.79-.13.65-.43,1.32-.79,1.2-.22-.08-.66-.57-1-.58-.3,1.55-3.48,2.82-1.35,4.32.48-2.17,1.44-2.64,3.17-3.01,1.28-.28,1.99-.7,3.29.35.46.37,1.38.36,1.69.82.37.54-.32,1.62.15,1.92Z"/>
  <path d="M266.13,545.11c1.06-2.1,1.25-6.09.34-8.13-.52-1.18-2.39-4.24.08-4.61,3.65-.55,7.44,1.89,11.25,1.98,1.19.03,3.57.55,3.55,1.93-.03,2.11-.61,4.11-.82,6.42-.61,6.87-4.6,13.46-11.33,16.22-13.53,5.55-27.84-4.09-28.43-13.91l-1.05-17.26c-.74-1.55-2.38-2.54-3.57-4.13l3.78-3.51.68-13.62c.4-7.96,5.41-14.93,13.47-17.26,4.12-1.19,8.86-1.26,13.01.02,7.48,2.3,12.37,9.36,12.82,16.82.1,1.61.83,2.24,1.76,3.35,2.22,2.68-14.49,5.65-16.19,5.87-1.01.13-1.28-1.24-1.24-1.74.09-1.13,4.17-3.36,2.54-9.08-.6-2.11-2.66-3.37-4.36-3.95-2.11-.72-4.6-.46-6.32,1.19-3.26,3.13-2.74,15.84-2.01,18.71.69,2.7.43,3.87-.09,6.42-.93,4.54-.19,9.63-.25,14.3-.04,3.14,1.81,5.61,4.27,6.53,2.75,1.02,6.52.59,8.12-2.58Z"/>
  <path d="M403.06,549.94c0,5.08,3.68,7.76,3.51,8.41-.19.7-.95,1.36-1.94,1.3-5.31-.3-10.38-.49-15.67-.1-.67.05-1.2-.52-1.46-.9-1.11-1.63,3.13-.9,3.16-11.75l.05-14.66c.02-7.1-2.28-5.38-3.3-8.33-.6-1.74,3.88-1.61,3.67-8.63l-.45-15.38c-.21-7.16-4.15-7.81-3.32-9.69.17-.39.84-1.02,1.59-.89,4.82.86,12.66-.71,14.1,1.23,2.07,2.81,3.24,6.18,4.63,9.45l11.51,27.06.08-30.17c.01-4.15.22-7.95,1.84-11.81,3.41-14.63,17.83-22.71,31.96-17.86,6,2.06,8.86,8.65,5.83,14.01-1.1,1.95-3.63,1.81-5.64,1.79-1.74-.02-4.39-1.41-4.48-3.58l-.2-5.14c-8.21-2.16-14.07,5.41-15.54,12.44-.94,4.49-1.74,8.97-1.76,13.63l-.1,16.45c-.03,5.14,3.84,4.96,4.1,6.76.29,1.99-4.12,2.36-4.1,7.17l.09,19.4c.01,3.17,1.13,5.86,2.76,8.36-.43,1.34-2.34.94-3.42.87-3.67-.22-6.91.27-10.66-.31-1.44-5.25-4.2-9.76-6.27-14.73l-6.83-16.37-3.7-8.95-.05,30.92ZM401.57,509.5c-.3-1.6-1.63-1.13-2.64-.93-.79.16-1.14,1.12-1.24,2.25.76-1.26,2.12-1.09,3.87-1.32ZM403.69,513.06c1.05-.18.24-1.33.06-1.75-.13-.28-5.82-.29-5.41.98-.09.78-.59,1.08-.35,1.36.38.43,1.18.84,1.4.33.13-.31-.4-.99.01-1.19.49-.23,2.63-1.13,3.23-.82.31.17.51,1.17,1.06,1.08ZM422.32,542.11c1.16-.43.52-2.03-.19-2.29-.52-.19-1.96.1-1.88.81.18.56,1.46,1.48,2.07,1.49Z"/>
  <path d="M465.65,535.43c-3.54,1.21-2.32-7.55-2.18-11.13.04-.89,1.2-1.78,2.13-1.78l16.81.04c.61,0,1.21.23,1.5.43.36.24.81,1.08.62,1.76-1.69,5.85.26,14.39-1.74,22.29-2.11,8.32-9.74,12.88-18.17,13.38-10.39.62-19.52-5.62-21.12-16.01-.74-4.75-.3-9.73-.73-14.67s-2.71-3.74-3.2-5.76c-.46-1.84,3.25-1.25,3.22-6.21-.04-5.92-.17-11.92,1.95-17.6,1.7-4.56,5.9-8.56,10.56-10.34,6.2-2.37,13.5-1.9,19.24,1.26,5.28,2.91,8.14,8.65,8.74,14.29.2,1.92,1.13,2.47,2.48,3.71.67.61-.99,1.65-1.75,1.83l-15.26,3.63c-1.18.28-1.86-.83-2.1-1.47-.4-1.1.77-1.12,1.46-1.96,1.56-1.88,1.89-5.28.8-7.51-1.29-2.65-4.17-3.77-6.96-3.18-2.54.54-4.89,2.4-5.43,5.43-1,5.58-.46,11.17-.47,16.9,0,6.62-.45,13,.4,19.53.49,3.8,3.8,6.23,7.39,6.01s6.96-3.15,6.75-7.2l-.38-7.47c-1.93.42-2.9,1.24-4.54,1.8Z"/>
  <path d="M517.53,547.83c7.46.03,9.83-4.93,11.34-4.12s.53,10.8.32,13.44c-.11,1.4-1.19,2.45-2.69,2.44l-26.9-.21c-4.2-.03-8.11,1-8.97-.69-.98-1.95,2.92-3.41,3-8.54.12-7.5.15-14.81-.19-22.24-.99-1.67-2.82-2.67-3.34-4.41.83-1.54,3.16-2.5,3.31-4.3.55-6.61.08-13.19.21-19.82.14-7-7.43-9.33-.51-9.66,4.6-.22,9.5.02,14.18-.03l20.6-.22c.91,2.26,1.76,13.89,1.46,14.64-.82,2.01-3.77-1.95-9.55-2.44-4.48-.38-8.89-.36-13.37.05l-.08,16.45c2.11.73,4.14.35,6.24.26,6.08-.27,6.35-4.26,8.09-3.14.36.23.85.86.83,1.57l-.4,17.04c-4.4-3.37-9.34-4.63-14.45-3.39l-.16,16.79c3.7.2,7.3.5,11.04.52ZM502.44,523.26c-1.01.84-1.39,1.06-1.78.77-.28-.22-.38-.49-1.09-.79.15.5-.29,1.04-.42,1.66.97-.1,1.72.48,2.67.6s1.25-1.87.61-2.23Z"/>
  <path d="M248.33,454.31c-11.89-3.31-19.95-15.86-23.14-26.65l-7.21-24.39c-1.96-.49-4.07-.37-5.99.45v17.43c0,2.37.68,4.5,2.52,6.12.62.54,1.02,3-.24,2.96-5.82-.22-11.52-.35-17.62-.04-1.18.06-1.02-1.93-.4-2.53,1.57-1.54,2.54-3.29,2.63-5.54.31-7.68.58-15.17-.06-22.78-.12-1.43-3.66-3.73-3.72-4.87-.1-2.02,3.76-1.64,3.82-5.23.12-7.04.32-13.89-.17-20.92-.28-4.03-3.12-4.73-2.95-7.18.03-.44.7-.88,1.48-.88l22.85-.07c4.84-.02,9.57,1.17,12.88,4.52,6.93,7,3.67,8.51,7.51,15.44-5.94,7.7,2.81,9.54-9.91,19.74,2.8,10.48,6.14,20.44,9.96,30.53,3.06,8.09,9.61,19.59,20.13,16.11-1.28-3.41-.67-6.84,2.32-8.54,2.69-1.52,6.5-1.24,8.37,1.75s1.13,6.52-1.16,9.13c-5.21,5.93-14.52,7.5-21.9,5.45ZM221.33,390.98c5.32-1.95,4.24-11.31,3.36-15.31-2.33-4.73-8.39-5.03-12.51-3.52-.49,2.62-.07,4.78-.13,7.16-.12,4.32-.75,8.39.22,12.61,3.09-.06,6.11.15,9.06-.94ZM205.42,402.59c2.49-.23-.24-7.83-1.08-5.13,1.14.96,2.13,3.42,1.08,5.13Z"/>
  <path d="M367.03,428.11l-8.25-24.35c-1.72-5.06-4.94,6.99-5.07,7.59-.54,2.52.18,5.17-.08,7.78-.65,6.38,3.36,7.89,3.16,10.17-.04.47-.66.94-1.45.92l-18-.35c-1.94-3.64,2.21-1.28,2.38-9.74.14-7.05.52-13.88-.26-20.9-.23-2.11-2.26-3.36-3.5-5.06,1.13-1.24,3.5-1.98,3.66-3.83.61-7.17.62-14.27.4-21.49-.17-5.62-4.32-5.74-3.31-7.67.24-.45,1.04-.87,1.88-.85,5.67.15,11.08.22,16.76.03.6-.02,1.12.24,1.33.47,1.61,1.73-3.53,3.4-3.39,10.98.1,5.08-.51,10,.33,15.23,7.76-14.92,16.6-35.39,29.86-44.84,12.46-8.88,29.03-3.62,30.82,5.72.49,2.57-.92,4.83-2.75,6.07-1.95,1.33-4.45,2.09-6.78.8-2.67-1.48-2.96-5-.95-7.6-2.25-2.07-5.25-2.09-7.97-.88-4.83,2.15-8.07,5.82-11.01,10.04s-5.49,7.88-7.91,12.19l-5.38,9.59-4.95,8.94c-1.51,2.72,2.27,5.41,3.02,7.61.49,1.41.57,2.92.98,4.38.9,3.16,2.2,5.89,3.32,8.89l6.36,17.05c3.39,9.09,9.61,23.26,21.86,22.1.66-1.81,0-3.65.48-5.54.64-2.52,2.97-4.56,5.37-4.55s5.3,1.11,6.24,3.77c1.2,3.39-.51,7.46-3.35,9.89-10.4,8.89-28.15,3.84-36.58-8.31-3.11-4.48-5.52-9.09-7.27-14.25ZM353.73,396.8c-1.57-.07-2.78.7-3.99.42-.88-.21-.09-1.29.22-1.7.67-.88,3.95.6,6.04.57.27,1.08-.27,1.94.2,2.88.8-.13,1.36-1.38,1.36-2.04.01-.9-1.16-1.29-2.03-2.18l3.18-1.32c-2.08-.76-3.41-1.24-4.69,0-.21.53,1.46.68,1.38,1.15-.62,3.6-6.01-5.62-6.81-3.45-.16.44.4.07,1.3.9l-2.06.92c.6.54,1.36.57,2.28.95.3,2.16-4.59,3.19-2.43,5.06,1.51,1.31,2.97.46,2.81,1.5-.09.6-1.35.96-1.78,2-.15.37.33,1.05.76.67.6-.53.68-1.06,1.12-1.24.3-.12.8.37,1.24.22.81-.27.7-2.43-.39-2.52-.53.07-.73.24-.93.17-.33-.1-.59-.52-.36-.79,1.15-1.38,2.49-.27,4.3.02.14-.72.09-2.15-.73-2.19ZM360.89,394.79c-1.11-.06-2.4,1.21-2.23,2.18.14.78,1.46,1.12,2.01,1.52,1-2.49-1.78-1.45.22-3.7Z"/>
  <path d="M263.46,417.64c7.61,1.21,14.2,2.42,20.56-2.71.45-.36,1.05-.35,1.38-.27,1.65.4.91,11.31.76,13.75-.04.7-.7,2.18-1.6,2.08-4.24-.47-8.27-.1-12.47-.13l-10.76-.07c-4.31-.03-8.38-.52-12.55.15-.59.1-1.24-.56-1.53-.83-1.52-1.44,2.64-3.02,2.8-8.49.21-7.34.28-14.51-.1-21.83-.09-1.74-3.32-3.66-3.34-4.8-.03-1.75,3.68-1.69,3.61-5.75l-.35-19.28c-.11-6.01-3.36-6.48-2.82-8.29.14-.46.79-.81,1.57-.8l27.03.1c3.26.01,6.3-.71,9.62.53.07,4.44,1.2,8.9.41,13.49-.21,1.22-4.06,0-3.81-1.56-1.06.46-2.18-.2-3.36-.38-4.39-.66-8.71-.56-13.15-.51-1.59.02-2.57,1.87-2.49,3.18.28,4.76-.1,9.09.61,13.78,3.33.18,6.56.04,9.58-.82,1.72-.49,2.54-2.14,4.93-2.46l.23,18.17-5.64-2.66c-2.83-1.34-6.25-.98-9.42-.71l.29,17.11ZM262.87,395.58c-1.15-.75-1.57-1.98-2.39-2.46-1.1-.61-2.71.23-3.77.34l3.38.46c.72.9,1.37,1.98,2.78,1.65Z"/>
  <path d="M307.86,417.49c6.05,1.45,15,2.38,19.83-1.96.75-.68,3.36-1.6,3.56-.16.7,4.88-.23,9.98-1.11,14.99l-10.39-.12c-8.83-.1-17.52-.49-25.92.12-.85.06-1.57-.38-2.09-.91-1.37-1.43,2.6-3.45,2.95-8.38.51-7.14.68-14.16,0-21.29-.21-2.15-3.4-4.41-3.41-5.31-.01-1.69,3.59-1.87,3.55-6.21l-.16-17.95c-.05-5.92-3.19-7.18-2.61-8.99.11-.34.68-.89,1.35-.89l31.45-.03c1.43,0,3.81-.54,4.85.73-.52,3.41,4.33,19.31-2.45,12.76-6.3-2.47-12.2-1.83-19.63-1.61-.39,5.69-.05,10.7.25,16.35,3.62.67,7.58.76,10.88-.91,1.38-.7,2.32-2.24,4.24-1.49-.67,26.07,1.3,16.32-5.96,14.77-3.05-.65-6.11-.48-9.26-.19l.09,16.68ZM307.74,395.55c-1.24-1.78-2.49-2.65-3.31-4.33-.34-.69-2.14-.34-2.44.48.66.83,1.21-.32,2.22-.13.63.11-.01.97-.27,1.25,1.54.72,1.93,2.53,3.8,2.73Z"/>
  <g>
    <path d="M164.83,550.11c1.41-2.39,10.42-.16,11.82,6.9,1.04,5.24-.4,10.04-1.53,15.15-1.23,5.59,1.95,15.32-3.28,14.37l-6.69-1.22-30.85.03-12.73.2c-15.22.23-13.41-4.68-19.09-2.15-11.51,5.12-22.41,1.22-28.42-9.84,4.77-.69,8.25-2.72,9.39-6.94,1.57-5.78,1.34-11.51,1.46-17.48.05-2.25.75-4.17.25-6.53-.57-2.74.57-6.16-1-8.63-2.14-3.35-5.72-5.31-8.6-8.29,4.32-4.7,9.23-5.75,9.51-12.89.26-6.55-.11-12.84-.19-19.44-.04-3.64-.67-7.63-2.75-10.74-1.57-1.86-7.62-2.74-7.42-5.93.06-.9.73-1.97,1.71-2.74,7.15-5.62,17.15-5.3,24.79-.45,3.54-.78,6.56-3.01,10.24-3.02l46.16-.07c3.05,0,6.04-.25,8.86-.84,1.64-.34,2.25-.76,3.62.73,3.59,3.89,4.94.25,4.19,14.35,2.4,6.32,3.53,13.96.06,20.27-2.93,1.9-8.14-.97-9.77-3.73-1.03-1.73-2.64-2.14-4.36-2.2l-14.77-.51c-2.01-.07-23.6-1.04-23.75.96-.36,4.78-.29,9.34,0,14.17,5.16.12,10.25-.1,14.95-1.35,2.6-.69,3.2-3.08,4.34-4.8,1.7-2.57,5.24-.64,6.93.74,8.83,7.26,3.56,14.53,4.13,20.18.47,4.73,1.86,9.13.6,13.82-.59,2.21-1.84,4.83-4.36,5.28-5.65,1.01-7.47-6.01-11.76-6.41-5.02-.46-9.91-.31-14.93.06l-.05,14.54c0,.94.61,1.77,1.68,1.79,5.73.11,11.35.38,17.14.01,1.44-.09,2.62.02,4.08.05,3.97.08,7.98-.88,11.84-1.25,4.17-.41,6.57-2.86,8.52-6.18ZM168.65,569.06c1.46-4.27,3.76-16.26-.9-17.35-1.35-.32-2.04,2.02-2.51,2.71.61.22,1.37.07,1.5.48.08.25-.69.5-.69.76,0-2.84-4.43,3.25-12.52,3.87-9.05.69-17.77.4-26.93.5.84,1.99,1.11-.31,3.57,1.82-2.54,1.86-.15,3.76-1.69,7.59-2.89-.61,2.17-5.25-2.72-6.44.06,3.68-.44,7-.16,10.54.11,1.34.68,2.66-.2,3.85-1.46-3.02-1-5.88-1.11-8.83l-.18-4.87c-.05-1.33-.7-2.35.75-3.57-2.78-.72-8.04.91-9.31-1.52-.09-7.51-.35-14.85.2-22.35.14-1.92,3.46-1.79,4.65-1.29,3.24,1.35,14.27-3.27,20.97,4.72.86,1.03,1.67,1.96,2.97,2.56,4.38-3.71,2.21-12.72,1.21-17.34-1.39-.01-1.35-.78-.09-.69,1.36-1.59.96-3.83,1.24-5.88.41-3,.63-6.02-1.26-8.53-2.64-3.51-3.75,3.37-7.91,4.63-5.02,1.52-10.22,1.43-15.44,1.45-2.32,0-4.42.53-6.95-.09l.2-20.88c.01-1.59,1.05-2.38,2.62-2.38l11.62-.03c1.66,0,3.31-.83,4.46-1.22,1.36.69,2.87,1.23,4.76,1.19,6.9-.14,13.71-.18,20.42,1.44,5.53,1.33,9,9.27,10.53,4.2,1.67-5.52.7-11.49-1.89-16.61-1.16-2.29,1.5-4-.13-9.52l-6.09.91-40.57-.14-6.65.13c-12.41.24-10.4,6.1-16.84,1.95-.42.47-.59.93-.71,1.1-.14.19-.57-.04-.74-.19-.13-.12.84-1.08.56-1.25-4.96-3.04-14.33-3.3-18.05,2.48,9.06,2.85,8.79,16.88,8.59,24.37-.15,5.45.76,10.97-.72,16.24-.86,3.07-4.24,5.33-5.62,8.06.02,1.64,2.16,1.69,2.84,2.79.93,1.5,2.72,3.48,2.94,5.34.87,7.18.38,14.11.3,21.32-.06,5.03-.27,10-1.91,14.72-.97,2.79-3.66,4.34-6.41,5.82,4.63,4.91,9.57,3.24,9.67,3.26,5.52,1.1,7.6-.75,12.49-3.77,3.75,3.03,8.06,4.1,12.89,4.31,6.7.29,13.24-.05,20.01-.2,3.82-.08,7.39.41,11.04-.45,0-1.18.76-3.2-.3-4.1-.52-.44-1.85.09-2.14-.48-.27-.55-.79-1.43-.16-1.86.49-.34,1.47.03,1.74-.55.2-.44-.43-1-.52-1.66l1.44.35.46-7.71c.67.13.91.34.94.84l.46,8.42c.09,1.7.31,3.04,1.74,4.05.33-.95-.34-1.27-.49-2.05,1.28-.85,1.28-2.06,1.65-3.59,3.57,7.91-2.1,6.07-.85,7.93.14.2.44.38.8.35.18-.01.14-.32.68-.54,1.33.57,3.31,1.66,4.48.66.35-.3.34-1.71,1.34-1.21-1.89,2.92,4.07,1.05,6.09,1.58s4.05,1.62,6,.57-.62-7.53.49-10.78Z"/>
    <path d="M97.29,534.56c.06,3.05-.71,5.67-.04,8.8l.86-1.17c-.62,11.08.74,18.76.5,30.05-1.92-.82-1.5-2.7-1.33-4.29-.11,1-.56-9.93-.54-11.86.02-2.22-1.07-4.19-1.09-6.38l-.17-18.93c-.01-1.63.83-3.1.61-4.83s-1.13-3.85-.85-5.57,1.72-3.35.97-5.44c-2.07-5.76-.16-2.88.14-7.37,1.85.66.92,2.29,1.62,3.8.72-1.87.3-3.79.19-6.04-.87.14-1.14,1.19-1.74.77-.24-.17-.14-1.05.14-1.08s1.57,0,1.59-.34c.35-6.73.11-13.78,0-20.55-.02-.94-.89-1.69-.17-2.55,1.15.87.91,2.26.97,3.64l.77,16.53c.29,6.29,1.58,16.13.58,23.06-.19,1.34.17,3.46.16,4.85l-.07,5.55c-.09,6.74.34,13.14.29,19.89l-.04,6.52c0,1.51.54,2.98-.92,4.09l.17-7.1c.06-2.36.7-4.67-.19-6.98-.2-.51-.91-1.3-.89-2.08.02-.58.62-.89.89-1.82.11-.38-.61-.88-.77-1.25-.1-.24.67-.47.62-.91l-.44-6.24c-.21-2.95-1.51-5.8-.47-8.67.37-.29,1-.27,1.13-.53.28-.54-.89-1.09-1.06-1.44-.97-2.02.19-7.42-.8-7.13-2.38.68-.77,6.01-.72,8.67l.08,4.35ZM97.91,517.68c.84-1.62,1.03-3.72.17-5.45-1.17,1.16-.09,2.71-.86,3.92-.57.45-1.2,1.13-.71,1.54.22.18,1.13.5,1.4-.01Z"/>
    <path d="M107.77,546.5c-4.71,2.73-3.9,5.53-4.02,10.33-.1,3.9-.25,7.57.33,11.51-2.09,2.82-1.88-23.82-1.88-24.17.09-5.49.23-10.78-.17-16.22-.29-3.99-.09-7.87-.07-11.85,0-.89,1.68-2.25.75-3.16s-.11-1.84-.33-2.36c-.73-1.74-.06-2.77.23-4.24.72-3.62.39-7.26.68-10.96.17-2.08-1.03-4.33.71-6.21.13,8.9.75,17.41-.38,25.98-.5,3.83-.08,7.27-.08,11.12v9.96c-.01,3.03-.75,12.42,2.58,10.05-.77-1-1.94-2.19-1.48-3.25s1.75.38,2.31.67c1.31-.27.48-1.96.52-3.18,2.95,1.43,2.1,4.62,2.15,7.27.16,8.87.82,17.25.52,26.11-1.22-1.38-.88-3.24-.98-4.79l-1.41-22.61Z"/>
    <path d="M94.02,569.99c-2.21-3.41-1.31-16.72-2.14-19.44-.22-.71-1.88-1.05-1.64-2.66.05-.3.56-.34,1.04-.09.28.14.05.88.52,1.41,1.03-.58.1-1.87,1.58-2.47-.55,1.35.43,2.56.27,3.32-.23,1.05-.49,1.92-.14,3.13.52,1.8-.57,3.7-.14,5.59.81,3.58.29,7.08.65,11.21Z"/>
    <path d="M110.53,536.6c-.3.28.13.76.21.9s-.52.43-.69.04c-.79-1.79.65-3.61.26-5.29-.87-3.77-1.66-6.14-.6-11.16,3.36,6.09-1.65,7.93,1.82,11.1.31.28.1,1.38.28,1.81.25.63.87.81,1.6.94-1.11.83-2.07.91-2.88,1.66Z"/>
    <path d="M119.47,570.05c-1.09,2.1.03,4.13-.94,6.38-1.38-2.84-.33-5.52-.65-8.39-.12-1.02-.3-1.65-.26-2.73l.17-4.93,2.12,2.12c-2.56,2.03.76,5.27-.43,7.54Z"/>
    <path d="M133.81,528.2c-.84,1.3-2.99,1.01-3.97.08,0-1.67-.96-3.95-.16-4.59.38-.31,1.29-.69,1.82-.5,0,2.09.42,4.05,2.31,5.01Z"/>
    <path d="M140.88,575.39c-.46.31-.86-.33-1.04-.77l.05-12.48c.54.07.86.5,1.03.94l-.03,12.31Z"/>
    <path d="M137.28,562.31c1,4.8.8,9.06.04,13.7-.86-4.74-.78-9.1-.04-13.7Z"/>
    <path d="M156.01,572.33c.21,1.06.12,1.38-.73.94-.44-.07-.99.21-1.26.14-.33-.08-.82-.75-.65-1.19.56-1.45-.31-2.56-.29-3.92l.04-5.26c2.02,2.05-.93,3.48,1.61,9.06.42-.41.5-.91.67-.91.26,0,.6.54.61,1.13Z"/>
    <path d="M115.03,578.37c-1.49-2.56.16-5.07-.78-7.6-.35-.93-.78-1.8.45-2.53.46,3.21,1.48,6.41.33,10.13Z"/>
    <path d="M166.69,558.4c-.51.42-1.36,1.54-2.07,1.34-.51-.14-1.18-1.01-1.22-1.42-.16-1.73,3.46-.32,4.17-1.58.46.89.94,1.4,1.43,1.85-.35.38-.76.84-1.06.95-.37.14-.71-.46-1.26-1.15Z"/>
    <path d="M143.72,484.69c.05.53.78,1.52.32,1.79-2.54.08.13-6.94.17-6.94,1.39,2.07,1.07,3.81-.48,5.15Z"/>
    <path d="M115.81,563.11c-4.15-2.9.73,3.42-1.92,2.9-.46-2.13.1-4.37.09-6.69,1.47.94,1.86,2.4,1.83,3.79Z"/>
    <path d="M135.66,525.75l-.19,2.01c-.16-.25-1.94-9.46.38-6.79.41.47-.23,1.06-.45,1.52.38,1.12,1.33,2.05.26,3.26Z"/>
    <path d="M140.88,481.97c-.83,1.01-.57,1.7-.62,3.2-1.19-.57-2.33-2.25-2.07-3.62.16-.87,2.17-.55,2.69.42Z"/>
    <path d="M134.69,575.84c.89,1.05.38,1.6-.67.96-.5-2.17-.25-4.41-.14-6.76,1.35,1.56.89,3.5.81,5.8Z"/>
    <path d="M114.21,526.76c1.16,5.79.03,1.7,1.6,3.94.28.4-.22,1.49-.67,1.38-1.48-1.25-1.81-3.73-.93-5.32Z"/>
    <path d="M121.37,532.3c-1.39-2.42-.83-4.83-.62-7.11,1.39,2.41.83,4.83.62,7.11Z"/>
    <path d="M110.52,512.59c1.21-.57,2.28-.74,3.55-2.05.49.9.39,1.98-.27,2.34-.78.42-1.27.5-3.28-.29Z"/>
    <path d="M92.73,540.64c.19-.04,2.13,5.95.29,5.57-.76-1.77-.66-3.58-.29-5.57Z"/>
    <path d="M112.89,528.03c.38,1.1-.18,1.49-.88.65-.17-1.58-.16-3.24.01-4.98,1.54.83.77,2.52.87,4.34Z"/>
    <path d="M87.83,519.92c.38.94.15,1.46-.22,1.74-.64.48-1.36.71-1.89.24l1.47-2.5c.59-.95,1.13-.48.64.51Z"/>
    <path d="M87.94,550.26c.62-1.66,2.99,7.19.93,5.26.07-1.79-.17-3.09-.93-5.26Z"/>
  </g>
  <g>
    <path d="M142.52,417.62c4.02-6.59-2.58-8.72-2.24-11.13s5.83-4.26,9.34-3.89c3.9.41,8.35,1.69,11.02,4.52,1.3,1.38,1.46,1.98,3.65,1.63,4.33-.7,9.2-.31,12.89,2.18,3.3,2.23,10.29,9.46,9.27,12.83-.48,1.59-4.79-.62-8.29,4.55-7.69,11.38-14.05,17.51-27.28,22.22-9.62,3.42-19.53,4.14-29.72,2.44-11.35-1.9-21.22-7.23-29.76-14.71-9.05-7.92-15.35-17.56-18.77-29.03-.84-2.84-1.25-5.9-2.48-8.55-1.4-3.01-7.74-6.62-7.84-8.2-.13-2.08,6.34-4.89,8.43-9.15,2.71-5.53,1.76-18.19,14.81-32.37,6.69-7.27,14.64-12.44,24.36-15.11,16.35-4.49,35.79-3.22,49.92,6.93,6.71,4.83,11.85,11.24,17.18,17.47,1.04,1.21,3.07.58,4.32,1.22,2.22,1.13,3.68,3.05,5.8,4.74-4.65,10.17-11.04,12.48-22.23,10.55-2.75,4.36-7.2,6.67-12.32,6.67-6.28.01-6.52-1.37-11.18-5.14-.56-.45-1.15-.7-1.21-1.27-.07-.66.14-1.08.78-1.73,2.58-2.63,3.74-7.75.24-10.3-4.37-3.18-10.85-4.25-16.09-2.55-9.25,3-14.64,11.78-15.07,20.87-.38,7.94,2.77,6.12,7.3,12.31-3.5,2.1-7.03,5.13-7.52,9.39-.44,3.81.65,8.2,2.16,11.51,2.41,5.29,7,7.67,12.37,8.4,7.02.96,14.34-1.01,18.17-7.3ZM72.72,399.35c1.13,2.14.61,4.75,1.39,6.84,1.26,3.37,2.25,6.57,3.73,9.82.8,1.75.99,3.47,3.81,3.55-.52.89-.96.54-1.65.75.32.99,2.63,5.76,4.51,4.39-.42.58-.76,1.05-.7,1.64.17,1.7,2.7.82,2.88,2.12.1.72-.14,1.38.28,1.85.45.51,1,.79,1.76.98.22.32-.05.96.29,1.27,7.28,6.84,9.32,7.34,17.69,11.27l2.45,1.15c5.91,2.78,11.48,1.32,10.52,1.14.35.07-1.01,3.92,17.44.97,14.63-2.34,27.17-10.4,34.85-22.95,2.54-4.15,4.27-4.3,8.73-4.74-3.59-8.43-11.26-9.6-19.45-7.4-1.27-.59-.86-2.29-1.87-3.06-3.91-2.99-10.25-5.27-15.53-2.61,1.94,5.38,3.85,7.53.92,12.23-.96,1.55-1.8,2.93-3.38,4.2-10.61,8.53-27.06,5.57-33.77-6.26-4.04-7.13-7.51-19.21,2.38-24.06-1.85-2.08-3.8-3.94-5.27-6.2-.7.38-1.31.67-1.79.59-.65-.1-.86-.7-.9-1.27-.02-.35.4-1.05.78-.87.59.28.62,1.18,1.58.94-3.08-6.72,1.56-17.68,6.45-22.83,6.24-6.57,13.19-7.93,22.26-6.59,1.48.22,3.34,1.78,4.76,1.34.36-.11.67-1.74,1.15-1.19.25.29.7.9.7,1.27,0,.27-1.24.12-1.86.74,3.36,2.21,6.25,4.89,7.96,8.47,1.18-.88,1.75.05.36.62,1.07,1.68-.22,3.59-.44,5.47-.18,1.54-1.27,2.27-2.7,3.59,5.82,3.22,13.08,1.15,16.52-4.41.51-.82,1.39-1.67,2.54-1.06,1.54.81,3.08.55,4.6.73,2.91.35,5.06-.08,7.55-1.61s5.28-3.04,5.88-6.33c-2.83.24-4.89-.86-6.45-2.77-2.91-3.54-5.3-7.33-8.46-10.58-3.81-3.92-7.81-6.88-12.82-9.06-3.49-1.51-6.74-3.67-10.62-4.28-7.11-1.12-22.02-1.95-28.18.07l-5.68,1.86c-2.15.71-4.1,2.06-6.32,2.66-.92.25-1.08,1.65-.88,2.3.18.61,1.15.5,1.76,1.49-.75.59-1.18-.28-1.53-.13-1,.43-.29,1.15-.28,1.73.12,8.83-.1,17.48.81,26.26.05.45.87,1.06.58,1.59-.13.23-.86.05-.85.74.02,1,.79,1.92-.41,2.67-.47-.3-.46-1.53-1.01-1.69-1.9-.14-2.29,1.34-2.39,3.19-.06,1.14.87,1.07,1.89,1.89.05.77.47,1.93,1.02,2.36l-.99,2.38-1.28-2.28c-.81,1.82-.85,4.09.79,5.37-2.73,5.69.04,6.32-1.44,11.67-1.43-6.05-.08-10.83-1.44-16.51-2.44,3.08-.13-2.99-2.38-3.62-.1,2.17.79,3.88-.61,5.51l-.94-3.68c1.11-4.14,1.19-8.36,1.1-13.21l-.1-5.43c-.04-1.96-1.04-3.81-.05-5.71.78,1.95.44,3.58.87,5.43,1.14,4.93-1.94,9.36,1.5,10.73-.4.92-.91,1.73-1.49,2.7-.53.89,1.72,2.71,2.12,1.81.78-1.78-.63-3.77-.15-5.45.57-2.02-.33-6.38.71-8.21l1.16,11.74c.34-.37.62-.84,1.49-1.35-1.04-1.03-1.09-2.67-.81-3.98.46.02.83-.04,1-.2-.48.47-1.25-4.44-.56-5.91.98-2.07,1.42-4.36.3-6.41l.63-3.7c-.38,2.22.47-12.48-1.27-12.08-.39.09-1.26.49-1.38,1.1-.19.93.62,1.95.13,2.99-.9-.4-1.27-1.58-2.05-1.69-1.18-.16-1.69,1.27-2.49,1.79-4.3,2.83-7.6,6.48-10.31,10.81-1.73,2.77-3.6,5.33-3.93,8.36,1.46-.41,1.23-.21,1.25,1.41,0,.7-1.19-.64-1.56-.6-.52.57-.97,1.24-.63,1.42l1.15.61c.79.42.06,1.45-.48,1.08-.28-.19-.8-.12-1.17-.76-2.13,1.51-3.11,13.76-4.29,14.98l-6.44,6.63c-.94.96,1.48,1.67,1.92,2.28,1.3,1.82,3.42,3.11,4.5,5.14Z"/>
    <path d="M104.32,423.43c-5.18.99-1.42,8.67-3.24,11.85-1.2-5.17-.57-10.18-.86-15.77-1.59.34-.14,1.55-.49,2.46-.81,1.26-.28,2.68-.35,3.97l-.39,7.7c-1.14-2.69.25-5.39-1.21-7.75-.47-.75-2.61-.48-3.17.03.59.73,1.43-.13,1.64.82-1.29-.07-2.45.31-2.49,1.67-.02.98.22,2.01-.43,2.52-.98-1.41-.39-2.24-.57-3.13-.45-2.27.27-16.45-.45-20.22-.86.57-1.61.87-2.34.9-.58.02-.9-1.84-.35-1.98.67-.17,1.64.38,2.2.49.14-.64.27-1.25.6-1.21.62.06.83,1.01,1.45,1.32l.83-7.32c1.11,3.13-.03,5.87.51,8.96.13.73,2.29,1.13,2.41.47.32-1.91-.77-3.64.37-5.57.78,2.83,1.02,5.82.61,8.89-.44-.15-6.09-1.66-1.5-1.34.37-.53-.02-.97-.32-1.03-.22-.04-.67.05-1.37.06-.28,2.49-.69,5.29.05,8.02.85-.45,1.05-1.12,1.57-1.33.72-.3.93.49,1.67,1.3l1.34-1.86c1.12-1.55-2.58.14-3.32-1.76-.12-.31-.74-.41.49-.97.42,1.47,1.92,1.44,3,1.69l3.82,4.22c-.93.8-1.48-.44-2.12.72.86.74,2.04.19,2.44,1.32l-2.65-.45c0,1.4,1.06,1.36,2.63,2.3ZM97.73,424.38c.17-.7-1.53-2.21-2.17-1.85-.72.41-.24,1.54.26,1.77.54.25,1.62,1.23,1.9.08Z"/>
    <path d="M89.44,390.98c-1.68-.55-1.54,5.78-1.53,8.25.02,5.04.46,9.9-.04,14.96-.16,1.66.29,2.78,2.31,3.28-.62.99-1.14.24-1.86.21-.55.62.25,1.77-1.03,2.19l-.54-11.81c-.06-1.39-.42-1.59.02-3.02.88-2.84.1-22.33-.42-26.73-.24-2.02-1.52-3.16-.19-5.26.96-1.51-.66-4.18.62-5.72.29,3.44,1.55,2.01,2.6,3.39.57.75-.76,1.59-.66,2.29.06.39.72.7.92,1.13.96,2.03-.28,4.17.97,6.16.77-1.13-.66-2.28.79-2.79.18,1.07.76,2.77.2,3.65-.81,1.24-1.98-.06-2.98-.3-.33,1.62,1.52,1.17,1.98,2.3-1,.3-1.46.93-2.07,1.3-.98.59.18,1.59-.06,2.21-.63,1.63-.18,2.93.96,4.33Z"/>
    <path d="M82.66,394.37c1.26-.22,1.78.27.92.89-1.31.81-.47,2.18-.52,3.27-.14,3.28-.3,6.28.44,9.61.2.92.12,3.26-1.05,3.24s-1.25-2.34-1.15-3.26c.48-4.29.02-8.34-.07-12.6l-.52-23.89c-.02-.74.62-1.32,1.2-1.38.44-.05.91-.19,1.13.7.82.74-.08,1.35-.62.46,0-1.15-.88,0-1.08.28-.18.27.12.67.32,1.15.13.31,1.01.07,1.41.35-.17,1.36-.17,3.01,1.7,3.53-.84.78-1.33.84-1.8,1.49-.33.45,1.01,1.16-.11,1.82-.84-.89.42-1.93-.75-2.75-.4,3.63-.54,13.33.55,17.1Z"/>
    <path d="M118.66,439.91c-.58.39.5,2.46-.26,2.83-1.39.28-1.56-1.53-1.65-2.6-.19-2.07-5.23.07-3.67-2.79.21-.39.88-1.16,1.32-.25-.07,1.08.57,1.19.68.14-.15-.45-.06-1.05-.11-1.35-.03-.21.41-.39.72-.32.2.05.34.68.73.99,1.16-.43-.05-3,.62-3.65.34-.33,1.35-.3,1.29.05-.13.87-.15,1.33.33,1.72s1.18.09,1.73.27c.71.24.39,1.35.9,2.22.81-.25.18-1.06.78-1.33.75,1.21-.01,2.36.23,3.65l-3.64.41Z"/>
    <path d="M144.99,440.54c-1.14,1.43-1.76-9.77-1.62-10.28.26-.96.97-1.75,1.01-3.02.06-1.99.38-3.86.94-5.65-.09,4.61.24,8.89-.1,13.39-.14,1.91-.6,3.58-.23,5.56Z"/>
    <path d="M147.86,426.11c.23,2.56,1.88,10.45-.54,12.24-.51-3.88-.15-7.39-.14-11.27,0-3.19-.52-6.23-.03-9.52,1.77,2.55.45,5.56.72,8.55Z"/>
    <path d="M107.03,434.74c-1.12-1.29-1.75-2-2.96-2.6.15-.83-.37-2.18-.37-3.19,0-1.21,1.8-2.64,2.83-2.99-1.17,1.45,1.22,3.42.5,8.78Z"/>
    <path d="M148.71,364.62c-1.65-1.69-.4-3.89-.26-5.78.29-3.77-.26-7.45.25-11.17.98-.56,1.7-.12.8.76l-.79,16.18Z"/>
    <path d="M137.83,439.91c-.51-2.73-.99-5.78.27-9,.58,2.83,1.19,5.76-.27,9Z"/>
    <path d="M145.12,348.58c.49.9,2.85,4.79.55,4.16-1.25-2.37-2-5.97-1.58-8.84,1.19,1.49.23,3.22,1.02,4.68Z"/>
    <path d="M127.52,439.47c-1.23.71-2.34.91-3.76.14,1.2-1.88,1.25-3.52.96-5.65,1.6,1.62,1.5,3.69,2.8,5.5Z"/>
    <path d="M134.55,431.34c3.39,2.99,1.02,7.19.35,6.37-.22-.27-.59-.68-.58-1.1l.23-5.26Z"/>
    <path d="M118.36,351.02c.28.53-.7.46-1.31.3-.38-1.17-.53-5.16.32-5.7.54-.35,1.62-.05,1.29.34-1.15,1.35-1.44,3.1-.3,5.07Z"/>
    <path d="M157.69,414.76c1.57-1.22.32,8.34.27,8.35-1.31.47,0-6.87-.27-8.35Z"/>
    <path d="M121.48,349.09c.83.85.1,1.9.49,3.11-.47-.22-.58-.39-.85-.55-.34-.2-.72.42-1.09.4-1.54-.12-.6-3.01-.54-3.15.14-.31.31-.34.53-.11.19.2.32.41.36.82.33.78.55.7,1.09-.52Z"/>
    <path d="M150.31,425.05l-.68-4.98c-.26-1.87-.5-3.59.88-5.08.18,3.49.17,6.3-.2,10.06Z"/>
    <path d="M110.98,436.41c-1.7-2.62-.18-5.05-.51-7.84,1.29,1.28.3,5.11.51,7.84Z"/>
    <path d="M159.95,424.12c-1.14-1.59-.76-2.91-.45-4.51.16-.85-1.14-2.01.39-2.75.91-.89-.5,8.29.57,6.09-.18.37-.25.99-.5,1.17Z"/>
    <path d="M113.15,354.33c.26-.71,3.98.07,4.7.48.32.18.42,1.17-.16.99-1.64-.51-3.32.05-4.54-1.47Z"/>
    <path d="M100.51,406.24c-.37-2.91-.82-5.67-.31-8.88,1.11,3.02.49,5.84.31,8.88Z"/>
    <path d="M161.99,427.09c-.92-1.65-1.34-3.69-.27-5.87.97,1.95.52,3.5.27,5.87Z"/>
  </g>
  <path d="M370.86,289.04c1.02.7,1.54,1.55,1.32,2.27s-1.07,1.64-2.09,1.51c-5.17-.62-10.08-.44-15.18-.08-.87.06-1.66-1.02-1.95-1.48-.9-1.43,3.02-1.14,3.15-9.67l.25-16.89c.08-5.12-3.51-5.18-3.47-7.23.03-1.87,3.06-1.7,3.29-5.84.38-6.76.36-13.42,0-20.17-.24-4.38-3.32-5.29-2.7-7.15.18-.53,1.1-1.57,1.92-1.4,3.85.82,7.71.21,11.62.54,2.57.21,3.27,3.08,4.11,4.99,4.13,9.42,8.27,18.49,11.91,28.09.45,1.18.97,2.2,1.9,3.09l.11-33.06c0-1.69.66-3.31.96-5.01,2.69-15.13,17.3-25.31,31.33-20.53,4.44,1.51,7.92,5.24,8.15,9.81.17,3.47-2.35,6.41-5.42,6.48-3.31.08-6.49-2.38-5.88-5.81.14-.78.66-1.53.4-2.16-1.08-2.52-8.52-.56-11.38,2.62-3.5,3.89-4.94,8.74-5.55,13.94-1.08,9.13-.87,18.12-.45,27.27.08,1.83,3.39,3.14,3.52,4.34.19,1.86-3.92,2.38-3.9,7.49l.06,15.53c.03,6.25,2.07,12.71,6.47,17.1,5.42,5.4,13.2,5.36,19.06.99-.46,5.02-4.47,8.12-8.78,9.39-10.54,3.1-21.13-3.21-26.05-12.71-7.08-13.69-12.54-27.56-18.7-42.29l.06,29.18c0,2.4.92,4.7,1.93,6.84ZM366.62,242.49c-1.17-.68-3.25-1.67-4.14-.19-.46.76,1.12.18,1.44.35,1.22.63,4.75,2.8,5.96.39.67-1.33-2.66-.19-3.26-.54ZM365.81,250.65c-1.37.68-2.33.86-3.47.57.52.9,1.34,1.55,2.22,1.23.62-.23,1.49-.64,1.25-1.8ZM388.68,266.64c.21-.59.11-1.09.55-1.34.34-.19.79.08,1.2-.37-.87-.35-1.52-.41-2.18-.4-.4,0-1.26,2.35-2.44,1.97-.31-.1-.62-1.03-1.31-.76-.3,1.05.86,1.74,1.67,1.73s2.17.15,2.51-.82ZM389.49,269.58c-1.6-.92-3.03.01-4.5-.55-1.38-.53-1.41-3.04-2.76-2.5-.35.14-.68.69-.27.84.66.24,1.17.51,1.27.86.07.23-.34.94-.05,1.15,1.62,1.2,4.34,1.24,6.31.19ZM388.93,271.8c-1.39-.39-2.52-.15-3.83.37,1.5,1.8,4.55,2.44,4.74,1.24.07-.42-.21-1.42-.91-1.62Z"/>
  <path d="M374.91,312.31c-8.46,7.95-25.26,6.93-34.18-4.48-4.23-5.41-6.92-11.56-8.23-18.32l-2.51-12.87h-12.78c-5.28,10.88,1.11,13.54-.29,15.49-.3.41-1,.72-1.72.65-5.17-.51-10.08-.49-15.19-.02-.61.06-1.16-.84-1.38-1.13-.94-1.28,2.98-2.93,3.82-6.97l4.55-21.93c.43-2.1-1.71-3.66-1.85-5.33.66-1.83,3.51-2.92,3.96-5.03l4.47-21.02c1-4.72-2.58-5.16-1.65-7.05.32-.64,1.4-1.47,2.36-1.33,3.65.51,16.09.65,19.73-.15.86-.19,1.67.55,1.91,1,1.35,2.59-3.04,2.25-1.91,7.58l4.7,22.21c1.22,1.61,3.22,2.2,4.1,3.99-.84,1.3-2.37,2.53-2.15,4.18,1.57,11.84,4.2,23.17,8.04,34.52,2.31,6.83,9.53,16.82,18.17,12.29-.44-2-1.21-3.69-.58-5.64.75-2.32,3.63-3.85,5.95-3.64,2.62.24,5.02,2.31,5.37,4.87.45,3.3-.34,5.91-2.72,8.16ZM319.18,265.4l8.45-.04-4.14-23.94c-2.03,6.22-2.2,11.95-3.63,17.82-.5,2.04-1.19,3.99-.68,6.17ZM317.56,273.2c-1.71-.91-3.01.67-3.65-1.06,2.1-.36,3.71.17,5.66-.46-1.49-.11-.81-1.65-1.24-2.11-.86-.91-2.11-1.66-1.75-3.51-1.62.74-.42,1.94-1.58,2.68-.72-.6-.05-1.76-1.2-2.03l-.09,5.09c-1.17.1-1.79-.77-2.94-.85,1.19,1.88,4.95,4.48,6.79,2.26Z"/>
  <path d="M293.74,291.68c-1.21,2.72-6.84-.35-15.65,1.14-1.58.27-4.17-.09-4.35-1.78,1.84-2.34,3.33-4.83,3.33-7.89l.02-18.95c0-4.12-3.31-4.65-3.6-6.27-.32-1.74,3.15-1.76,3.36-5.79.35-6.77.41-13.46.08-20.23-.27-5.59-4.07-5.31-2.66-8.06.29-.57,1.39-1,2.31-.89,4.99.62,9.86.86,14.86.04.96-.16,2.06.1,2.36.76,1.32,2.91-3.35,3.45-3.38,8.59-.03,7.3-.03,14.48.55,21.76l3.74,3.62-4.23,4.27c-.27,6.85-.44,13.66.06,20.59.5,6.95,4.08,7.15,3.21,9.09Z"/>
  <path d="M182.89,253.65c-.25,9.4-.41,18.58-.15,27.96.22,7.97,3.75,7.96,3.38,9.67-.6,2.73-7.85.19-16.33,1.56-1.08.17-3.28-1.29-2.56-2.29,1.68-2.31,3.07-4.35,3.08-7.43l.02-18.41c0-4.96-3.17-4.97-3.57-6.78-.43-1.93,3.55-2.12,3.54-6.66l-.03-18.94c0-5.56-3.61-5.63-2.84-8.05.17-.54,1-1.31,1.9-1.25l11.87.8c2.2.5,3.48,3.78,4.28,5.68l10.46,24.66c.87,2.06.92,4.34,2.8,6-.35-10.12-.44-19.76-.18-29.83.18-7.03,1.77-13.79,5.53-19.68,5.87-9.2,17.1-13.16,27.43-9.48,4.45,1.58,7.86,5.55,7.9,10.1.02,2.37-1.47,4.5-3,5.41-2.21,1.3-4.7.72-6.73-.57-4.58-2.91-.21-5.3-1.62-7.14-1.58-2.06-8.9.37-11.07,2.83-3.88,4.43-5.43,10.18-5.9,16.08-.63,7.88-.14,15.5-.26,23.39-.06,4.45,5.24,5.22,3.87,6.77s-3.59,2.85-3.73,5.14c-.38,6.34-.35,12.51-.17,18.86.24,8.45,4.66,18.01,13.76,19.7,3.98.74,7.58-.86,11.48-2.81-1.58,6.76-8.5,10.49-15.31,9.96-11.08-.86-18.32-9.32-22.4-18.92l-15.45-36.3ZM183.29,242.88c-.58-.48-1.89-.29-2.85-.23-.6.04-.71-.79-.81-1.11-.78-2.38,2.78.76,3.54-1.42-6.5-1.61-3.95,3.38-8.24,2.28-.32-.08-.73.89-.39.97.28.07.23.73.64.88.25.09.46-.79.91-.94,6.29-2.05,5.29,4.3,7.2-.42ZM180.5,245.22c-1.99.54-3.28.45-5.25-.05.07,1.8,1.58,1.71,2.88,2.19,1.1.4,2.1-.79,2.37-2.14ZM186.36,245.43c-1.6-.09-3.06-.64-4.51.44,1.45.98,3.69.77,4.51-.44ZM196.26,269.57c1.88.41,3.6.58,5.44.38.51-.05.49-.85.16-.91-.18-.04-.65.07-.98-.1-1.08-.55.1-1.47.52-2,.65-.81,1.32-.4,2.55-.22-.53-.72-.57-1.12-.68-2.05-.39.33-.72,1.21-1.47,1.06-.38-.34-1.24-1.8-1.87-1.17-.29.29-.24,1.27-.62,1.15-.26-.08-.54-.97-.98-.96-.49.98-.84,1.9-2.29,2.03,1.26.59,2.06.67,2.93,1.73.48-1.51.56-3.08,2.05-3.17-.42,1.48-1.07,2.47-1.74,3.32-.76.84-2.13-.39-3.01.91ZM202.79,274.15c.51.32,1.04-.85,1.06-1.22.02-.56-.89-.52-1.46-.83-1.04-.56-3.31-.38-2.93.92.7.53,2.45.58,3.33,1.13Z"/>
  <path d="M255.48,289.43c-10.19,5.36-17.49,1.87-29.74,3.42-1.62.2-4.35-.22-4.2-2.06,2.34-2.22,3.43-4.48,3.42-7.66l-.07-19.65c-.01-3.53-2.93-3.53-3.66-6.25,2.45-1.29,3.65-3.27,3.63-5.98l-.15-19.93c-.03-4.15-3.59-4.66-2.9-7.09.21-.72,1.28-1.52,2.32-1.28,5.55,1.31,14.78-.62,22.79.58,8.67,1.3,14.73,7.27,17.02,15.36,3.14,11.11-1.32,14.29,5.1,19.03-5.96,3.82-2.47,10.8-5.57,20.7-1.4,4.46-3.7,8.55-7.98,10.8ZM251.34,252.56c-.28-5.45-.04-15.6-6.09-17.77-2.23-.8-4.7-.69-7.02-.31-.3,10.54.02,20.68.1,31.18l.11,14.91c2.83.47,5.87.51,8.26-.87,5.94-3.41,4.94-21.05,4.64-27.15Z"/>
  <g>
    <path d="M156.18,308.65c-4.84,8.63-16.13,10.18-24.27,5.27-3.2-1.93-8.08,3.61-16.33,2.45-6.08-.85-14.45-5.19-16.76-11.49,9.77-.56,10.45-11.53,10.58-18.75s.81-13.88-.24-20.83c-.89-5.91-7.52-8.16-7.48-10.32.04-2.01,7.8-3.86,7.75-13.2l-.09-17.43c-.03-4.83-.81-9.55-3.2-13.7-4.07-1.41-2.37-2.87-5.05-3.49-6.03-1.39,7.11-14.33,24.33-5.62,2.31,1.17,5.28-4.59,17.44-2.6,4.67.77,8.37,3.39,11.31,6.93.84,1.01,2.32,1.4,2.26,3.46-3.81.38-7.04,2.4-8.5,6-3.13,7.69-2.56,21.73-2.34,30.41.16,5.98,5.19,8.46,8.73,12.77-11.13,5.1-8.84,16.23-8.89,27.62-.02,4.81.18,9.46,1.5,14.03.63,2.18,2.01,3.21,4.14,3.9,1.11.36,1.44,1.9,2.54,2.46.75.38,2.46,1.04,2.56,2.14ZM119.11,279.69c.24,2.6-.56,5.22-.49,7.99-1.2-.25-.13-1.03-.67-1.72-1.48,1.14-.27,2.54-.28,3.9-.06,6.37-.02,13.29-1.9,19.53-.38-6.66.81-12.73-.12-19.33-.94.33-2.12,1.4-2.08,2.16l.49,9.68-1.56-9.85c1.33-.79.4-1.53-.56-.96-.22,2.47-.15,4.88-1.26,6.89l-3.36,6.07c-.62,1.12-2.35,1.26-3.5,2.14,2.43,3.76,6.85,5.09,11.41,4.25,1.75-.32,4.41.13,5.82-1.25,6.18-6.02,6.72,3.6,21.77.96,2.62-.46,4.89-1.55,5.8-4.12-1.48-1.33-3.14-2.72-4.92-3.35-.21-.07-.82.66-1.01.42-.12-.15-.4-.38-.27-.75.06-.18.46-.18.97-.54-2.61-4.36-3.57-9.21-3.71-14.41-.18-6.91-.37-13.74-.08-20.61.22-5.29,2.75-9.26,7.61-11.88-5.26-3.81-7.59-9.09-7.64-15.1-.04-4.9.06-9.56.28-14.44.37-8.3-.74-15.07,8.13-20.06.95-.66-1.08-2.33-1.84-2.68-6.45-3.02-13.73-1.83-19.6,2.1-.81.52-2.05-.72-2.82-.72l-1.73,2.02c-.83-.94-.85-1.93-1.77-2.78-.73,1.16-1.5.53-2.02.62-.95.15-1.38.35-2.31-.36-.87-.67-2.16.29-2.69.9-.46-.65-.65-1.28-1.1-1.46-.55-.22-1.06.23-1.82.43-.31.08-.78-.53-.88-.82,4.18-.78,7.86.06,12.23.44-1.9-2.64-17-2.76-17.54,2.04,9.29,6.56,6.92,16.04,8.59,24.89.94.41,1.7,1.7,1.45,2.4-.36,1.04-1.05,1.57-1.92,2.53.89.78,1.33-.29,2.31.06-.65,1.01-1.46.88-.52,2.66.07,1.1-1.17,1.04-1.12-.06.04-.81.46-1.57-.48-1.77-.24,7.91-.05,14.18-7.21,19.13,9.84,8.46,6.15,11.93,8.01,23.34.76-3.59-.06-6.92.31-10.43,2.55-1.04.94,4.43,2.61,6.31.3.33,1.24-.43,1.55-.72.25-.23-.43-1.19-.3-1.54,3.02-8.08.54-8.26,2.57-14,.5,9.43-1.78,11.36-.82,21.86ZM112.73,290.06c.7.89,3.3-.67,3.23-2.05-.02-.44-.45-.52-1.03-1.08,1.1-.7,1.42-1.55.82-2.25-.71,1.04-1.39,1.34-1.45,2.5l-1.15-1.61c-.52,1.14-1.45,3.19-.42,4.49Z"/>
    <path d="M130.94,303.56c-.39,1.39,1.89,3.25.48,4.46-.26.23-1.79.18-1.87-.4-.07-.49.74-.86.88-1.3,1.11-3.7-2.66-6.43-2.26-5.5-.19-.44.81-.65.87-.98.18-.97-1.01-1.66-1.8-2.35,2.3-5.58-1.38-8.83,3.11-11.24,1.41-1.44-1.05-21.8,1.87-20.74-1.23,2.8-.19,5.25.22,7.81.27,1.71-.67,3.38-.59,4.8l.43,7.52c.31,5.42-.77,7.74-.8,10.42l-.06,4.07c-.02,1.2-.06,2.03-.46,3.45Z"/>
    <path d="M129.16,273.13c-.91,4.91,1.93,5.55-1.29,10.82-.26-3.59,1.01-6.55-.27-10.07-1.16,2.79-.17,5.14-.76,7.66-.3-1.09-1.06-1.02-1.32-1.38-.08-.11.4-8.61,1.31-10.03.55,1.04.25,2.2.96,2.93.92-1.01.05-2.02.87-3.17.66,1.01.67,2.27.49,3.25Z"/>
    <path d="M129.35,258.21c-.48-.06-.35-11.93-.37-12.44l-.21-5.56c-1.2.56-.41,1.59-.82,2.62-.71-1.36-1-2.98-.4-4.47.5.22.59.53.68.69.2.37.48.19.65.11.48-.21.18-.83.3-1.43.15-.74.58-.09.82.07-.73-.47-.4,8.17-.34,9.37l.5,10.39c0,.21-.62.67-.79.65Z"/>
    <path d="M133.79,281.43c-1.27-1.02-.26-1.72.36-2.41,1.15-1.29.06-2.94.05-4.35-.02-3.14.32-6.28.79-9.39.29-1.92-1.36-2.91-1.19-4.16l.59-4.38c1.14,1.39-.39,3.32.34,4.88,1.1,2.34,1.32,4.19.63,6.69-.45,1.62.45,8.45.7,6.17-.04.39-.87.79-.88,1.22-.03,2.1-.04,3.86-1.4,5.73Z"/>
    <path d="M136.32,298.3c-.7.95.98,2.21-.04,3.25-3.12-5.75-.53-14-.98-20.52,2.48,2.57-.43,7.74.67,14.95.12.82,1.19,1.18.35,2.31Z"/>
    <path d="M119.06,236.43c-1.21-.66-.2-1.75-.13-2.69.37-4.46,0-8.69.77-13.02,1.12,2.44.2,4.75.29,7.14.11,2.85.2,5.46-.94,8.57Z"/>
    <path d="M127.18,261.69c-1.33-1.04-.65-2.59-.61-3.98l.13-5.44c.06-2.58.46-4.82.55-7.57,1.16,1.89.62,3.9.48,6.03-.25,3.66-.04,7.05-.56,10.96Z"/>
    <path d="M124.18,211.94c-.26,2.58.48,9.53-1.05,9.32.15-3.27-.14-6.02.12-8.79l.72-7.47c1.47,2.35.45,4.67.21,6.94Z"/>
    <path d="M135.2,215.59c-.43.32-.94.2-1.13.14-.76-.23-1.36-10.09-.49-10.99,1.58,2.91-.55,9,1.62,10.85Z"/>
    <path d="M122.74,288.46c-1.42.05-1.07-1.05-1.43-1.77-.33-.66.97-1.12,1.03-1.86.12-1.63-.51-3.23.3-4.55.5,1.02,1.19,2.56.98,3.39-1.12,1.39-1.96,2.63-.88,4.79Z"/>
    <path d="M138.86,296.16c.95.28,1.13.53,1.24.85.18.53,0,1.44-.74,1.34s-1.28-.89-2.04-1.36l1.32-4.02c.53.83.3,1.43.99,1.96-.05.5-.55.59-.77,1.23Z"/>
    <path d="M123.53,291.04c-1.42,4.37.96,9.47-.7,11.13-.69-2.25.12-4.55-.38-6.98-.29-1.41-1.12-3.35,1.07-4.15Z"/>
    <path d="M139.41,302.91c1.95-.37,2.35,6.51.93,5.72-.27-.15-.45-.64-.34-1.07l.58-2.19c.22-.81-1.46-.97-1.17-2.47Z"/>
    <path d="M120.2,257.04c-.6-.07-.49-.63-.77-.95s-.73-.06-1.29-.15c-.41-.06-.36-.79-.5-1.01-.23-.36.01-1.32.88-1.23,1.47.16,2.29,1.98,1.67,3.34Z"/>
    <path d="M124.12,261.23c-1.86,1.31-.37-7.87.04-8.64l-.04,8.64Z"/>
    <path d="M128.19,269.54c-.82.45-.9-7.59.52-6.32-.34,2.13.62,3.95-.52,6.32Z"/>
    <path d="M122.39,232.27c-.15-1.63-.24-3,.69-4.62,1.01,1.66.45,3.29-.69,4.62Z"/>
  </g>
</svg>